<svg xmlns="http://www.w3.org/2000/svg" viewBox="0 0 640 520" role="img" aria-labelledby="title3">
  <title id="title3">Inventory and medicine product illustration</title>
  <defs>
    <linearGradient id="gradX" x1="0" y1="0" x2="1" y2="1">
      <stop offset="0%" stop-color="#0ea5e9" />
      <stop offset="100%" stop-color="#22c55e" />
    </linearGradient>
    <linearGradient id="gradY" x1="0" y1="0" x2="1" y2="1">
      <stop offset="0%" stop-color="#facc15" />
      <stop offset="100%" stop-color="#f97316" />
    </linearGradient>
  </defs>
  <rect x="18" y="18" width="604" height="484" rx="56" fill="#0b1220" />
  <rect x="92" y="118" width="196" height="208" rx="32" fill="url(#gradX)" opacity="0.95" />
  <rect x="94" y="132" width="98" height="90" rx="20" fill="#fff" opacity="0.92" />
  <rect x="206" y="224" width="44" height="90" rx="18" fill="#f8fafc" opacity="0.85" />
  <circle cx="170" cy="390" r="72" fill="url(#gradY)" opacity="0.9" />
  <rect x="384" y="108" width="178" height="360" rx="38" fill="#111827" />
  <rect x="408" y="148" width="124" height="80" rx="20" fill="#eef2ff" />
  <rect x="408" y="248" width="124" height="48" rx="14" fill="#c7d2fe" />
  <rect x="408" y="314" width="124" height="48" rx="14" fill="#c7d2fe" />
  <rect x="408" y="378" width="124" height="48" rx="14" fill="#c7d2fe" />
  <path d="M160 316c-18 0-32 14-32 32s14 32 32 32 32-14 32-32-14-32-32-32Z" fill="#fff" />
  <path d="M160 284h24" stroke="#0b1220" stroke-width="14" stroke-linecap="round" />
  <path d="M148 296h40" stroke="#0b1220" stroke-width="12" stroke-linecap="round" />
</svg>