<svg xmlns="http://www.w3.org/2000/svg" viewBox="0 0 640 520" role="img" aria-labelledby="title4">
  <title id="title4">Pharmacy brand and team illustration</title>
  <defs>
    <linearGradient id="gradP" x1="0" y1="0" x2="1" y2="1">
      <stop offset="0%" stop-color="#3b82f6" />
      <stop offset="100%" stop-color="#22c55e" />
    </linearGradient>
    <linearGradient id="gradQ" x1="0" y1="0" x2="1" y2="1">
      <stop offset="0%" stop-color="#f97316" />
      <stop offset="100%" stop-color="#ec4899" />
    </linearGradient>
  </defs>
  <rect x="20" y="20" width="600" height="480" rx="56" fill="#0f172a" />
  <path d="M120 380h180c24 0 44-20 44-44v-160c0-24-20-44-44-44H120c-24 0-44 20-44 44v160c0 24 20 44 44 44Z" fill="url(#gradP)" opacity="0.94" />
  <path d="M294 180h160c24 0 44 20 44 44v120c0 24-20 44-44 44H294c-24 0-44-20-44-44V224c0-24 20-44 44-44Z" fill="url(#gradQ)" opacity="0.92" />
  <circle cx="180" cy="232" r="40" fill="#fff" />
  <circle cx="180" cy="232" r="18" fill="#0f172a" />
  <path d="M348 260h90" stroke="#fff" stroke-width="16" stroke-linecap="round" />
  <path d="M348 308h64" stroke="#fff" stroke-width="16" stroke-linecap="round" />
  <path d="M348 356h120" stroke="#fff" stroke-width="16" stroke-linecap="round" />
  <circle cx="478" cy="160" r="26" fill="#fff" opacity="0.9" />
  <path d="M472 154h12v24h-12z" fill="#0f172a" />
</svg>